<svg width="28" height="7" viewBox="0 0 28 7" fill="none" xmlns="http://www.w3.org/2000/svg">
<path d="M13.9998 7.00005C15.718 7.00005 17.1109 5.60716 17.1109 3.88894C17.1109 2.17072 15.718 0.777832 13.9998 0.777832C12.2816 0.777832 10.8887 2.17072 10.8887 3.88894C10.8887 5.60716 12.2816 7.00005 13.9998 7.00005Z" fill="black"/>
<path d="M24.8889 7.00005C26.6072 7.00005 28.0001 5.60716 28.0001 3.88894C28.0001 2.17072 26.6072 0.777832 24.8889 0.777832C23.1707 0.777832 21.7778 2.17072 21.7778 3.88894C21.7778 5.60716 23.1707 7.00005 24.8889 7.00005Z" fill="black"/>
<path d="M3.11111 7.00005C4.82933 7.00005 6.22222 5.60716 6.22222 3.88894C6.22222 2.17072 4.82933 0.777832 3.11111 0.777832C1.39289 0.777832 0 2.17072 0 3.88894C0 5.60716 1.39289 7.00005 3.11111 7.00005Z" fill="black"/>
</svg>
