<svg width="19" height="22" viewBox="0 0 19 22" fill="none" xmlns="http://www.w3.org/2000/svg">
<path d="M18.7793 14.6414L16.8065 12.5931V9.10345C16.8042 7.21962 16.1315 5.40312 14.9178 4.00288C13.704 2.60263 12.0348 1.71741 10.2307 1.51724V0H8.76935V1.51724C6.97023 1.73019 5.30831 2.61921 4.09697 4.01666C2.88563 5.41411 2.20857 7.22343 2.19346 9.10345V12.5931L0.220694 14.6414C0.14938 14.7082 0.0928584 14.7903 0.0550185 14.8819C0.0171787 14.9736 -0.00108037 15.0727 0.00149808 15.1724V17.4483C-0.00496011 17.5496 0.00951256 17.6513 0.0439471 17.7463C0.0783817 17.8414 0.131983 17.9278 0.201163 17.9996C0.270343 18.0714 0.353505 18.1271 0.44508 18.1628C0.536655 18.1986 0.63453 18.2136 0.732152 18.2069H5.84673C5.84673 19.2129 6.23163 20.1777 6.91675 20.889C7.60187 21.6004 8.53109 22 9.5 22C10.4689 22 11.3981 21.6004 12.0833 20.889C12.7684 20.1777 13.1533 19.2129 13.1533 18.2069H18.2678C18.3655 18.2136 18.4633 18.1986 18.5549 18.1628C18.6465 18.1271 18.7297 18.0714 18.7988 17.9996C18.868 17.9278 18.9216 17.8414 18.9561 17.7463C18.9905 17.6513 19.005 17.5496 18.9985 17.4483V15.1724C19.0011 15.0727 18.9828 14.9736 18.945 14.8819C18.9071 14.7903 18.8506 14.7082 18.7793 14.6414ZM9.5 20.4828C8.91866 20.4828 8.36112 20.243 7.95005 19.8162C7.53898 19.3894 7.30804 18.8105 7.30804 18.2069H11.692C11.692 18.8105 11.461 19.3894 11.05 19.8162C10.6389 20.243 10.0813 20.4828 9.5 20.4828ZM17.5372 16.6897H1.46281V15.4759L3.43557 13.4276C3.50689 13.3608 3.56341 13.2787 3.60125 13.187C3.63909 13.0953 3.65735 12.9963 3.65477 12.8966V9.10345C3.65477 7.49386 4.2706 5.95019 5.3668 4.81204C6.46299 3.67389 7.94975 3.03448 9.5 3.03448C11.0503 3.03448 12.537 3.67389 13.6332 4.81204C14.7294 5.95019 15.3452 7.49386 15.3452 9.10345V12.8966C15.3427 12.9963 15.3609 13.0953 15.3988 13.187C15.4366 13.2787 15.4931 13.3608 15.5644 13.4276L17.5372 15.4759V16.6897Z" fill="black"/>
</svg>
