<svg width="14" height="14" viewBox="0 0 14 14" fill="none" xmlns="http://www.w3.org/2000/svg">
<path d="M7 0C3.14005 0 0 3.14005 0 7C0 10.86 3.14005 14 7 14C10.86 14 14 10.86 14 7C14 3.14005 10.86 0 7 0Z" fill="white"/>
<path d="M10.5477 5.51666L6.75597 9.30826C6.64221 9.42201 6.49289 9.47926 6.34357 9.47926C6.19424 9.47926 6.04492 9.42201 5.93117 9.30826L4.03537 7.41246C3.80722 7.18442 3.80722 6.8157 4.03537 6.58766C4.26341 6.35951 4.63202 6.35951 4.86017 6.58766L6.34357 8.07106L9.72287 4.69186C9.95091 4.46371 10.3195 4.46371 10.5477 4.69186C10.7757 4.91991 10.7757 5.28851 10.5477 5.51666Z" fill="#00B7EE"/>
</svg>
