<svg width="25" height="25" viewBox="0 0 25 25" fill="none" xmlns="http://www.w3.org/2000/svg">
<g clip-path="url(#clip0)">
<path d="M22.5 3.88546e-06C21.1221 -0.00232033 20.003 1.03838 20.0005 2.3245C19.9993 2.93066 20.2515 3.5134 20.7033 3.94881L16.1358 12.4733C16.0357 12.4578 15.9347 12.4482 15.8333 12.4445C15.5106 12.4451 15.1911 12.5043 14.8925 12.6187L11.3467 8.89707C11.5537 8.5555 11.6638 8.17027 11.6667 7.77784C11.6667 6.48918 10.5474 5.44451 9.1667 5.44451C7.78599 5.44451 6.6667 6.48918 6.6667 7.77784C6.66914 8.33483 6.88696 8.87227 7.28003 9.29141L2.94668 16.3754C2.79941 16.3489 2.64995 16.3348 2.5 16.3333C1.11929 16.3333 0 17.378 0 18.6667C0 19.9553 1.11929 21 2.5 21C3.88071 21 5 19.9553 5 18.6667C4.99756 18.1097 4.77974 17.5722 4.38667 17.1531L8.72002 10.0691C9.1852 10.1549 9.66724 10.1088 10.1042 9.9369L13.65 13.6586C13.4442 14.0004 13.3352 14.3856 13.3334 14.7778C13.3292 16.0665 14.4451 17.1143 15.8258 17.1181C17.2065 17.122 18.3292 16.0805 18.3333 14.7919C18.3353 14.1839 18.083 13.5993 17.63 13.1624L22.1975 4.63791C22.2976 4.65341 22.3986 4.66302 22.5 4.66667C23.8807 4.66667 25 3.622 25 2.33334C25 1.04467 23.8807 3.88546e-06 22.5 3.88546e-06ZM2.5 19.4445C2.03975 19.4445 1.66665 19.0962 1.66665 18.6667C1.66665 18.2371 2.03975 17.8889 2.5 17.8889C2.96025 17.8889 3.33335 18.2371 3.33335 18.6667C3.33335 19.0962 2.96025 19.4445 2.5 19.4445ZM9.16665 8.55554C8.7064 8.55554 8.3333 8.20732 8.3333 7.77775C8.3333 7.34818 8.7064 6.99996 9.16665 6.99996C9.6269 6.99996 10 7.34818 10 7.77775C10 8.20732 9.6269 8.55554 9.16665 8.55554ZM15.8333 15.5555C15.3731 15.5555 15 15.2073 15 14.7777C15 14.3482 15.3731 14 15.8333 14C16.2936 14 16.6667 14.3482 16.6667 14.7777C16.6667 15.2073 16.2936 15.5555 15.8333 15.5555ZM22.5 3.11113C22.0397 3.11113 21.6667 2.76291 21.6667 2.33334C21.6667 1.90377 22.0397 1.55554 22.5 1.55554C22.9603 1.55554 23.3333 1.90377 23.3333 2.33334C23.3333 2.76291 22.9603 3.11113 22.5 3.11113Z" fill="black"/>
</g>
<defs>
<clipPath id="clip0">
<rect width="25" height="25" fill="white"/>
</clipPath>
</defs>
</svg>
