<svg width="193" height="205" viewBox="0 0 193 205" fill="none" xmlns="http://www.w3.org/2000/svg">
<path d="M96.5 192.391C149.795 192.391 193 149.323 193 96.1954C193 43.0681 149.795 0 96.5 0C43.2045 0 0 43.0681 0 96.1954C0 149.323 43.2045 192.391 96.5 192.391Z" fill="url(#paint0_linear)"/>
<path d="M54.189 162.174C46.2887 151.85 41.8923 139.295 41.672 126.313C41.3965 110.079 42.5645 88.331 49.5282 75.5679C61.6705 53.3149 60.1059 39.2667 68.7114 50.1955C77.3278 61.1243 74.9809 96.6456 74.9809 96.6456H137.632L151.659 153.508L134.569 164.327C129.115 167.776 125.809 173.773 125.809 180.21V205H57.3843V171.62C57.3843 168.205 56.2605 164.887 54.189 162.174Z" fill="url(#paint1_linear)"/>
<path opacity="0.4" d="M65.7804 160.67C59.2134 159.967 53.7372 157.649 49.2307 154.596C50.6851 157.232 52.3379 159.769 54.189 162.185C56.2384 164.228 57.3843 166.996 57.3843 169.885V205H67.3451V187.525C67.3451 180.451 73.0967 174.718 80.1926 174.718H126.647C127.947 170.478 130.712 166.766 134.569 164.327L139.637 161.12C120.752 161.757 84.1703 162.636 65.7804 160.67Z" fill="#E5A376"/>
<path d="M131.197 29.5132H72.8874C67.5765 29.5132 63.2792 33.8078 63.2792 39.091V157.935C63.2792 163.229 67.5875 167.513 72.8874 167.513H131.197C136.508 167.513 140.805 163.218 140.805 157.935V39.091C140.805 33.7968 136.508 29.5132 131.197 29.5132Z" fill="url(#paint2_linear)"/>
<path d="M131.197 35.3676H104.995V56.0718H134.933V39.091C134.933 37.0371 133.258 35.3676 131.197 35.3676Z" fill="#EFEFEF"/>
<path d="M95.5304 35.3676H72.8874C70.8269 35.3676 69.1521 37.0371 69.1521 39.091V79.6429H95.5304V35.3676Z" fill="#EFEFEF"/>
<path d="M134.933 58.1697H104.995V75.3482H134.933V58.1697Z" fill="#EFEFEF"/>
<path d="M134.933 84.7833H104.995V139.043H134.933V84.7833Z" fill="#EFEFEF"/>
<path d="M95.5304 81.7407H69.1521V104.686H95.5304V81.7407Z" fill="#EFEFEF"/>
<path d="M121.666 161.658H131.197C133.258 161.658 134.933 159.989 134.933 157.935V141.13H121.666V161.658Z" fill="#EFEFEF"/>
<path d="M69.1521 114.121V157.924C69.1521 159.978 70.8269 161.647 72.8874 161.647H95.5304V114.121H69.1521Z" fill="#EFEFEF"/>
<path d="M119.562 141.13H104.995V161.658H119.562V141.13Z" fill="#EFEFEF"/>
<path d="M104.995 35.3676H95.5304V79.6539H69.1521V81.7408H95.5304V104.697H69.1521V114.121H95.5304V161.658H104.995V141.13H119.562V161.658H121.666V141.13H134.933V139.032H104.995V84.7833H134.933V75.3483H104.995V58.1697H134.933V56.0718H104.995V35.3676Z" fill="white"/>
<path d="M120.939 35.3676L117.821 39.5414C116.73 41.0022 115 41.8699 113.171 41.8699H90.9247C89.0956 41.8699 87.3657 41.0022 86.2749 39.5414L83.1566 35.3676H120.939Z" fill="white"/>
<path d="M157.774 83.6409C155.526 78.6543 149.598 76.4137 144.596 78.6543L124.52 87.4852C119.518 89.7259 117.27 95.6352 119.518 100.622C121.765 105.608 127.693 107.849 132.696 105.608L152.771 96.7775C157.763 94.5258 160.022 88.6166 157.774 83.6409Z" fill="url(#paint3_linear)"/>
<path opacity="0.29" d="M157.774 83.6409C157.355 82.7292 156.826 81.9055 156.187 81.1805C156.815 85.4642 154.567 89.8467 150.413 91.7029L130.338 100.534C126.261 102.357 121.556 101.204 118.746 98.0076C118.879 98.8863 119.121 99.765 119.507 100.622C121.754 105.608 127.682 107.849 132.685 105.608L152.76 96.7774C157.763 94.5257 160.022 88.6165 157.774 83.6409Z" fill="#E5A376"/>
<path opacity="0.69" d="M129.478 88.1662L126.867 89.3305C123.462 90.8573 121.589 94.6686 122.702 98.2163C124.024 102.445 128.751 104.477 132.696 102.709L135.483 101.457C136.938 100.809 137.588 99.106 136.927 97.6562L133.291 89.5941C132.63 88.1553 130.922 87.5072 129.478 88.1662Z" fill="white"/>
<path d="M136.916 97.6672L133.28 89.6052C133.037 89.078 132.663 88.6606 132.211 88.375C131.087 90.3631 130.878 92.8344 131.891 95.0751C132.905 97.3157 134.888 98.8095 137.125 99.2818C137.213 98.7546 137.158 98.1944 136.916 97.6672Z" fill="white"/>
<path d="M171.403 99.4575C169.155 94.4709 163.227 92.2302 158.225 94.4709L125.83 108.651C120.828 110.892 118.58 116.801 120.828 121.787C123.076 126.774 129.004 129.015 134.006 126.774L166.412 112.594C171.403 110.353 173.651 104.444 171.403 99.4575Z" fill="url(#paint4_linear)"/>
<path opacity="0.29" d="M171.404 99.4575C170.974 98.5019 170.401 97.6452 169.729 96.8983C169.795 100.754 167.591 104.477 163.856 106.158L131.451 120.338C127.418 122.15 122.768 121.03 119.947 117.91C119.969 119.217 120.245 120.535 120.818 121.787C123.066 126.774 128.994 129.015 133.996 126.774L166.401 112.594C171.404 110.353 173.652 104.444 171.404 99.4575Z" fill="#E5A376"/>
<path opacity="0.69" d="M130.779 109.332L128.167 110.496C124.762 112.023 122.889 115.834 124.002 119.382C125.324 123.611 130.051 125.643 133.985 123.874L136.773 122.622C138.227 121.974 138.877 120.272 138.216 118.822L134.58 110.76C133.941 109.332 132.233 108.684 130.779 109.332Z" fill="white"/>
<path d="M138.227 118.833L134.591 110.771C134.349 110.243 133.974 109.826 133.522 109.541C132.398 111.529 132.189 114 133.203 116.241C134.216 118.481 136.2 119.975 138.436 120.447C138.525 119.92 138.458 119.36 138.227 118.833Z" fill="white"/>
<path d="M159.845 124.511C157.917 120.239 152.827 118.306 148.54 120.228L126.569 129.849C122.283 131.772 120.344 136.846 122.272 141.119C124.201 145.391 129.291 147.324 133.577 145.402L155.548 135.781C159.845 133.858 161.774 128.795 159.845 124.511Z" fill="url(#paint5_linear)"/>
<path opacity="0.29" d="M159.845 124.511C159.416 123.545 158.821 122.71 158.104 121.996C158.777 125.753 156.837 129.663 153.19 131.288L131.219 140.91C127.892 142.404 124.09 141.58 121.644 139.142C121.765 139.812 121.964 140.471 122.261 141.119C124.189 145.391 129.28 147.325 133.566 145.402L155.537 135.781C159.845 133.859 161.774 128.795 159.845 124.511Z" fill="#E5A376"/>
<path opacity="0.69" d="M130.812 130.432L128.575 131.431C125.655 132.738 124.046 136.011 124.994 139.054C126.129 142.689 130.184 144.425 133.566 142.909L135.957 141.844C137.202 141.283 137.764 139.823 137.202 138.581L134.084 131.662C133.522 130.432 132.057 129.871 130.812 130.432Z" fill="white"/>
<path d="M137.202 138.592L134.084 131.673C133.886 131.222 133.555 130.86 133.17 130.618C132.2 132.321 132.035 134.441 132.894 136.363C133.754 138.285 135.472 139.559 137.39 139.976C137.456 139.515 137.412 139.043 137.202 138.592Z" fill="white"/>
<path d="M156.749 142.898C154.953 138.922 150.226 137.132 146.226 138.911L130.206 145.963C126.217 147.753 124.421 152.465 126.206 156.452C128.002 160.428 132.729 162.218 136.729 160.439L152.749 153.388C156.749 151.586 158.545 146.874 156.749 142.898Z" fill="url(#paint6_linear)"/>
<path opacity="0.29" d="M156.749 142.898C156.341 141.986 155.757 141.185 155.085 140.515C155.218 143.667 153.455 146.742 150.413 148.104L134.393 155.156C131.318 156.529 127.815 155.782 125.545 153.552C125.589 154.53 125.798 155.507 126.228 156.441C128.024 160.417 132.751 162.207 136.751 160.428L152.771 153.377C156.749 151.586 158.545 146.874 156.749 142.898Z" fill="#E5A376"/>
<path opacity="0.69" d="M134.161 146.501L132.079 147.434C129.357 148.654 127.859 151.696 128.751 154.53C129.809 157.913 133.577 159.527 136.729 158.122L138.954 157.122C140.111 156.606 140.629 155.244 140.111 154.091L137.213 147.654C136.684 146.501 135.318 145.985 134.161 146.501Z" fill="white"/>
<path d="M140.111 154.091L137.213 147.654C137.026 147.237 136.717 146.907 136.365 146.666C135.461 148.247 135.307 150.224 136.111 152.015C136.916 153.805 138.502 154.991 140.287 155.376C140.343 154.958 140.298 154.508 140.111 154.091Z" fill="white"/>
<path d="M114.658 90.967C114.658 83.6189 108.686 77.6548 101.304 77.6548C93.9327 77.6548 87.9496 83.608 87.9496 90.967C87.9496 105.707 101.304 111.43 101.304 111.43C101.304 111.43 114.658 105.411 114.658 90.967Z" fill="url(#paint7_linear)"/>
<path d="M107.408 90.3849C107.408 87.0239 104.676 84.2999 101.304 84.2999C97.9324 84.2999 95.1998 87.0239 95.1998 90.3849C95.1998 93.7459 97.9324 96.4699 101.304 96.4699C104.676 96.4699 107.408 93.7459 107.408 90.3849Z" fill="white"/>
<path d="M120.939 35.3676L117.821 39.5414C116.73 41.0022 115 41.8699 113.171 41.8699H90.9247C89.0956 41.8699 87.3657 41.0022 86.2749 39.5414L83.1566 35.3676H120.939Z" fill="url(#paint8_linear)"/>
<defs>
<linearGradient id="paint0_linear" x1="96.499" y1="186.128" x2="96.499" y2="-8.44427" gradientUnits="userSpaceOnUse">
<stop stop-color="#F2F2F0" stop-opacity="0"/>
<stop offset="1" stop-color="#DFDED9"/>
</linearGradient>
<linearGradient id="paint1_linear" x1="41.6366" y1="125.706" x2="151.663" y2="125.706" gradientUnits="userSpaceOnUse">
<stop stop-color="#F8D0A9"/>
<stop offset="1" stop-color="#F1B88A"/>
</linearGradient>
<linearGradient id="paint2_linear" x1="63.2767" y1="98.5123" x2="140.807" y2="98.5123" gradientUnits="userSpaceOnUse">
<stop stop-color="#08426D"/>
<stop offset="1" stop-color="#1D6A99"/>
</linearGradient>
<linearGradient id="paint3_linear" x1="118.648" y1="92.1266" x2="158.644" y2="92.1266" gradientUnits="userSpaceOnUse">
<stop stop-color="#F8D0A9"/>
<stop offset="1" stop-color="#F1B88A"/>
</linearGradient>
<linearGradient id="paint4_linear" x1="119.95" y1="110.624" x2="172.279" y2="110.624" gradientUnits="userSpaceOnUse">
<stop stop-color="#F8D0A9"/>
<stop offset="1" stop-color="#F1B88A"/>
</linearGradient>
<linearGradient id="paint5_linear" x1="121.523" y1="132.817" x2="160.596" y2="132.817" gradientUnits="userSpaceOnUse">
<stop stop-color="#F8D0A9"/>
<stop offset="1" stop-color="#F1B88A"/>
</linearGradient>
<linearGradient id="paint6_linear" x1="125.522" y1="149.671" x2="157.45" y2="149.671" gradientUnits="userSpaceOnUse">
<stop stop-color="#F8D0A9"/>
<stop offset="1" stop-color="#F1B88A"/>
</linearGradient>
<linearGradient id="paint7_linear" x1="87.9596" y1="94.5397" x2="114.658" y2="94.5397" gradientUnits="userSpaceOnUse">
<stop stop-color="#EB7E5A"/>
<stop offset="1" stop-color="#EA5228"/>
</linearGradient>
<linearGradient id="paint8_linear" x1="83.1514" y1="38.6226" x2="120.934" y2="38.6226" gradientUnits="userSpaceOnUse">
<stop stop-color="#08426D"/>
<stop offset="1" stop-color="#1D6A99"/>
</linearGradient>
</defs>
</svg>
