<svg width="192" height="205" viewBox="0 0 192 205" fill="none" xmlns="http://www.w3.org/2000/svg">
<path d="M96 192.391C149.019 192.391 192 149.323 192 96.1954C192 43.0681 149.019 0 96 0C42.9807 0 0 43.0681 0 96.1954C0 149.323 42.9807 192.391 96 192.391Z" fill="url(#paint0_linear)"/>
<path d="M53.9082 162.174C46.0489 151.85 41.6753 139.295 41.456 126.313C41.182 110.079 42.3439 88.331 49.2715 75.5679C61.351 53.3149 59.7945 39.2667 68.3553 50.1955C76.9272 61.1243 74.5924 96.6456 74.5924 96.6456H136.919L150.873 153.508L133.872 164.327C128.446 167.776 125.157 173.773 125.157 180.21V205H57.087V171.62C57.087 168.205 55.9689 164.887 53.9082 162.174Z" fill="url(#paint1_linear)"/>
<path opacity="0.4" d="M65.4396 160.67C58.9066 159.967 53.4588 157.649 48.9756 154.596C50.4225 157.232 52.0667 159.769 53.9082 162.185C55.947 164.228 57.087 166.996 57.087 169.885V205H66.9961V187.525C66.9961 180.451 72.718 174.718 79.7771 174.718H125.99C127.284 170.478 130.035 166.766 133.872 164.327L138.914 161.12C120.126 161.757 83.7342 162.636 65.4396 160.67Z" fill="#E5A376"/>
<path d="M130.517 29.5132H72.5097C67.2263 29.5132 62.9514 33.8078 62.9514 39.091V157.935C62.9514 163.229 67.2373 167.513 72.5097 167.513H130.517C135.801 167.513 140.076 163.218 140.076 157.935V39.091C140.076 33.7968 135.801 29.5132 130.517 29.5132Z" fill="url(#paint2_linear)"/>
<path d="M130.517 35.3676H104.451V56.0718H134.233V39.091C134.233 37.0371 132.567 35.3676 130.517 35.3676Z" fill="white"/>
<path d="M95.0354 35.3676H72.5097C70.4599 35.3676 68.7938 37.0371 68.7938 39.091V79.6429H95.0354V35.3676Z" fill="white"/>
<path d="M134.233 58.1697H104.451V75.3482H134.233V58.1697Z" fill="white"/>
<path d="M134.233 84.7833H104.451V139.043H134.233V84.7833Z" fill="white"/>
<path d="M95.0354 81.7407H68.7938V104.686H95.0354V81.7407Z" fill="white"/>
<path d="M121.036 161.658H130.517C132.567 161.658 134.233 159.989 134.233 157.935V141.13H121.036V161.658Z" fill="white"/>
<path d="M68.7938 114.121V157.924C68.7938 159.978 70.4599 161.647 72.5097 161.647H95.0354V114.121H68.7938Z" fill="white"/>
<path d="M118.942 141.13H104.451V161.658H118.942V141.13Z" fill="white"/>
<path d="M104.451 35.3676H95.0354V79.6539H68.7938V81.7408H95.0354V104.697H68.7938V114.121H95.0354V161.658H104.451V141.13H118.942V161.658H121.036V141.13H134.233V139.032H104.451V84.7833H134.233V75.3483H104.451V58.1697H134.233V56.0718H104.451V35.3676Z" fill="white"/>
<path d="M120.312 35.3676L117.21 39.5414C116.125 41.0022 114.404 41.8699 112.585 41.8699H90.4535C88.6339 41.8699 86.913 41.0022 85.8278 39.5414L82.7257 35.3676H120.312Z" fill="white"/>
<path d="M156.956 83.6409C154.72 78.6543 148.823 76.4137 143.847 78.6543L123.875 87.4852C118.898 89.7259 116.662 95.6352 118.898 100.622C121.134 105.608 127.032 107.849 132.008 105.608L151.98 96.7775C156.945 94.5258 159.193 88.6166 156.956 83.6409Z" fill="url(#paint3_linear)"/>
<path opacity="0.29" d="M156.956 83.6409C156.54 82.7292 156.014 81.9055 155.378 81.1805C156.003 85.4642 153.767 89.8467 149.634 91.7029L129.662 100.534C125.607 102.357 120.926 101.204 118.131 98.0076C118.263 98.8863 118.504 99.765 118.887 100.622C121.124 105.608 127.021 107.849 131.997 105.608L151.969 96.7774C156.945 94.5257 159.193 88.6165 156.956 83.6409Z" fill="#E5A376"/>
<path opacity="0.69" d="M128.807 88.1662L126.21 89.3305C122.823 90.8573 120.959 94.6686 122.066 98.2163C123.382 102.445 128.084 104.477 132.008 102.709L134.781 101.457C136.228 100.809 136.875 99.106 136.217 97.6562L132.6 89.5941C131.942 88.1553 130.243 87.5072 128.807 88.1662Z" fill="white"/>
<path d="M136.206 97.6672L132.589 89.6052C132.348 89.078 131.975 88.6606 131.526 88.375C130.408 90.3631 130.2 92.8344 131.208 95.0751C132.216 97.3157 134.19 98.8095 136.415 99.2818C136.502 98.7546 136.448 98.1944 136.206 97.6672Z" fill="white"/>
<path d="M170.515 99.4575C168.279 94.4709 162.381 92.2302 157.405 94.4709L125.178 108.651C120.202 110.892 117.966 116.801 120.202 121.787C122.438 126.774 128.335 129.015 133.312 126.774L165.549 112.594C170.515 110.353 172.751 104.444 170.515 99.4575Z" fill="url(#paint4_linear)"/>
<path opacity="0.29" d="M170.516 99.4575C170.088 98.5019 169.518 97.6452 168.849 96.8983C168.915 100.754 166.723 104.477 163.007 106.158L130.77 120.338C126.758 122.15 122.132 121.03 119.326 117.91C119.348 119.217 119.622 120.535 120.192 121.787C122.428 126.774 128.325 129.015 133.302 126.774L165.539 112.594C170.516 110.353 172.752 104.444 170.516 99.4575Z" fill="#E5A376"/>
<path opacity="0.69" d="M130.101 109.332L127.503 110.496C124.116 112.023 122.253 115.834 123.36 119.382C124.675 123.611 129.377 125.643 133.291 123.874L136.064 122.622C137.511 121.974 138.158 120.272 137.5 118.822L133.883 110.76C133.247 109.332 131.548 108.684 130.101 109.332Z" fill="white"/>
<path d="M137.511 118.833L133.894 110.771C133.652 110.243 133.28 109.826 132.83 109.541C131.712 111.529 131.504 114 132.512 116.241C133.521 118.481 135.494 119.975 137.719 120.447C137.807 119.92 137.741 119.36 137.511 118.833Z" fill="white"/>
<path d="M159.017 124.511C157.099 120.239 152.035 118.306 147.771 120.228L125.914 129.849C121.65 131.772 119.72 136.846 121.639 141.119C123.557 145.391 128.621 147.324 132.885 145.402L154.742 135.781C159.017 133.858 160.935 128.795 159.017 124.511Z" fill="url(#paint5_linear)"/>
<path opacity="0.29" d="M159.017 124.511C158.59 123.545 157.998 122.71 157.285 121.996C157.954 125.753 156.025 129.663 152.396 131.288L130.539 140.91C127.229 142.404 123.447 141.58 121.014 139.142C121.135 139.812 121.332 140.471 121.628 141.119C123.546 145.391 128.61 147.325 132.874 145.402L154.731 135.781C159.017 133.859 160.935 128.795 159.017 124.511Z" fill="#E5A376"/>
<path opacity="0.69" d="M130.134 130.432L127.909 131.431C125.004 132.738 123.403 136.011 124.346 139.054C125.475 142.689 129.509 144.425 132.874 142.909L135.253 141.844C136.491 141.283 137.05 139.823 136.491 138.581L133.389 131.662C132.83 130.432 131.372 129.871 130.134 130.432Z" fill="white"/>
<path d="M136.491 138.592L133.389 131.673C133.192 131.222 132.863 130.86 132.48 130.618C131.515 132.321 131.351 134.441 132.206 136.363C133.061 138.285 134.77 139.559 136.678 139.976C136.744 139.515 136.7 139.043 136.491 138.592Z" fill="white"/>
<path d="M155.937 142.898C154.15 138.922 149.448 137.132 145.469 138.911L129.531 145.963C125.563 147.753 123.776 152.465 125.552 156.452C127.339 160.428 132.041 162.218 136.02 160.439L151.958 153.388C155.937 151.586 157.724 146.874 155.937 142.898Z" fill="url(#paint6_linear)"/>
<path opacity="0.29" d="M155.937 142.898C155.531 141.986 154.95 141.185 154.282 140.515C154.413 143.667 152.66 146.742 149.634 148.104L133.696 155.156C130.638 156.529 127.152 155.782 124.894 153.552C124.938 154.53 125.146 155.507 125.574 156.441C127.361 160.417 132.063 162.207 136.042 160.428L151.98 153.377C155.937 151.586 157.724 146.874 155.937 142.898Z" fill="#E5A376"/>
<path opacity="0.69" d="M133.466 146.501L131.394 147.434C128.687 148.654 127.196 151.696 128.084 154.53C129.136 157.913 132.885 159.527 136.02 158.122L138.234 157.122C139.385 156.606 139.9 155.244 139.385 154.091L136.502 147.654C135.976 146.501 134.617 145.985 133.466 146.501Z" fill="white"/>
<path d="M139.385 154.091L136.502 147.654C136.316 147.237 136.009 146.907 135.658 146.666C134.759 148.247 134.606 150.224 135.406 152.015C136.206 153.805 137.785 154.991 139.561 155.376C139.615 154.958 139.572 154.508 139.385 154.091Z" fill="white"/>
<path d="M120.312 35.3676L117.21 39.5414C116.125 41.0022 114.404 41.8699 112.585 41.8699H90.4535C88.6339 41.8699 86.913 41.0022 85.8278 39.5414L82.7257 35.3676H120.312Z" fill="url(#paint7_linear)"/>
<path d="M146.598 74.6783H116.706C110.601 74.6783 105.657 69.7246 105.657 63.6067V57.2142C105.657 51.0962 110.601 46.1426 116.706 46.1426H146.598C152.703 46.1426 157.647 51.0962 157.647 57.2142V63.6067C157.636 69.7246 152.692 74.6783 146.598 74.6783Z" fill="url(#paint8_linear)"/>
<path d="M118.8 73.2614L112.913 66.4954L109.976 80.9829L118.8 73.2614Z" fill="url(#paint9_linear)"/>
<path d="M120.071 58.6191H125.958V65.9782C124.357 66.5274 122.603 66.8019 120.696 66.8019C118.591 66.8019 116.969 66.1869 115.829 64.9677C114.678 63.7485 114.108 62.0021 114.108 59.7504C114.108 57.5427 114.733 55.8292 115.994 54.599C117.243 53.3689 119.008 52.7538 121.266 52.7538C122.121 52.7538 122.932 52.8307 123.689 52.9954C124.445 53.1602 125.114 53.3579 125.683 53.6105L124.522 56.5102C123.535 56.0269 122.461 55.7853 121.288 55.7853C120.214 55.7853 119.381 56.1368 118.8 56.8397C118.208 57.5427 117.923 58.5422 117.923 59.8383C117.923 61.1124 118.186 62.0899 118.723 62.7599C119.249 63.4299 120.016 63.7595 121.025 63.7595C121.573 63.7595 122.077 63.7045 122.538 63.6057V61.4639H120.104V58.6191H120.071Z" fill="#F6F8FB"/>
<path d="M141.676 59.7733C141.676 62.0689 141.117 63.8154 139.988 65.0126C138.859 66.2098 137.215 66.8029 135.045 66.8029C132.907 66.8029 131.263 66.1988 130.123 65.0016C128.983 63.8044 128.413 62.047 128.413 59.7514C128.413 57.4778 128.983 55.7423 130.112 54.5451C131.241 53.3479 132.896 52.7438 135.055 52.7438C137.226 52.7438 138.87 53.3369 139.988 54.5231C141.117 55.7204 141.676 57.4668 141.676 59.7733ZM132.293 59.7733C132.293 62.4094 133.214 63.7385 135.045 63.7385C135.976 63.7385 136.667 63.4199 137.116 62.7719C137.566 62.1348 137.796 61.1353 137.796 59.7733C137.796 58.4114 137.566 57.4009 137.116 56.7528C136.656 56.1048 135.976 55.7753 135.066 55.7753C133.214 55.7753 132.293 57.1043 132.293 59.7733Z" fill="#F6F8FB"/>
<path d="M147.168 61.7944H144.088L143.616 52.9635H147.639L147.168 61.7944ZM143.649 65.0676C143.649 64.4964 143.814 64.0571 144.153 63.7495C144.493 63.431 144.976 63.2772 145.611 63.2772C146.247 63.2772 146.729 63.431 147.047 63.7495C147.376 64.068 147.541 64.5074 147.541 65.0676C147.541 65.6277 147.376 66.0671 147.036 66.3746C146.697 66.6931 146.225 66.8469 145.611 66.8469C144.997 66.8469 144.515 66.6931 144.164 66.3746C143.825 66.0671 143.649 65.6277 143.649 65.0676Z" fill="#F6F8FB"/>
<path d="M89.0943 108.266H69.3418C63.5761 108.266 58.8956 103.576 58.8956 97.7989V78.0063C58.8956 72.2289 63.5761 67.5388 69.3418 67.5388H89.0943C94.86 67.5388 99.5405 72.2289 99.5405 78.0063V97.7989C99.5405 103.587 94.86 108.266 89.0943 108.266Z" fill="url(#paint10_linear)"/>
<path d="M78.2535 88.8582C78.2206 88.4738 77.5739 79.3354 82.5394 76.897L82.8025 77.4462C78.2096 79.6978 78.8454 88.7155 78.8564 88.8033L78.2535 88.8582Z" fill="white"/>
<path d="M78.8564 82.5756C78.8564 82.5756 73.277 79.0827 74.4608 73.8655C74.4499 73.8765 79.3277 76.238 78.8564 82.5756Z" fill="white"/>
<path d="M78.5166 85.7389C78.5166 82.7513 66.3165 78.2041 66.3165 89.7699C66.3165 94.6906 68.5198 97.7002 71.0518 99.5344C75.4802 102.742 81.5529 102.742 85.9813 99.5344C88.5134 97.7002 90.7166 94.6906 90.7166 89.7699C90.7166 78.2041 78.5166 82.7513 78.5166 85.7389Z" fill="#D34529"/>
<path d="M103.311 155.551H86.7705C81.0048 155.551 76.3243 150.861 76.3243 145.084V128.509C76.3243 122.732 81.0048 118.042 86.7705 118.042H103.311C109.077 118.042 113.757 122.732 113.757 128.509V145.084C113.747 150.861 109.077 155.551 103.311 155.551Z" fill="#BC3A24"/>
<path d="M108.332 130.421C105.701 121.568 95.5506 126.796 95.5506 130.421C95.5506 126.796 85.4003 121.568 82.7696 130.421C80.1388 139.274 95.5506 148.028 95.5506 148.028C95.5506 148.028 110.962 139.285 108.332 130.421Z" fill="#EB5833"/>
<path d="M90.2562 144.776C90.0808 144.776 89.9383 144.656 89.9054 144.491L87.5488 131.805L85.5757 138.098C85.5319 138.241 85.3894 138.351 85.2359 138.351H80.5773C80.38 138.351 80.2265 138.197 80.2265 137.999C80.2265 137.802 80.38 137.648 80.5773 137.648H84.9728L87.2966 130.245C87.3405 130.091 87.483 129.981 87.6584 130.003C87.8228 130.014 87.9543 130.135 87.9872 130.289L90.2891 142.69L92.7773 131.684C92.8102 131.519 92.9746 131.398 93.1281 131.409C93.2925 131.409 93.435 131.53 93.4679 131.695L94.3777 136.495H96.9975L98.6746 129.531C98.7184 129.366 98.8719 129.245 99.0473 129.256C99.2227 129.267 99.3542 129.399 99.3761 129.575L100.505 141.492L101.963 136.736C102.007 136.583 102.149 136.484 102.303 136.484H109.493C109.691 136.484 109.844 136.637 109.844 136.835C109.844 137.033 109.691 137.187 109.493 137.187H102.566L100.659 143.403C100.604 143.568 100.45 143.667 100.286 143.656C100.121 143.634 99.9899 143.502 99.968 143.338L98.8719 131.75L97.6223 136.923C97.5894 137.077 97.4469 137.198 97.2825 137.198H94.0927C93.9283 137.198 93.7748 137.077 93.7419 136.912L93.0952 133.496L90.607 144.513C90.5631 144.667 90.4206 144.776 90.2562 144.776Z" fill="#BC3A24"/>
<defs>
<linearGradient id="paint0_linear" x1="95.999" y1="186.128" x2="95.999" y2="-8.44427" gradientUnits="userSpaceOnUse">
<stop stop-color="#F2F2F0" stop-opacity="0"/>
<stop offset="1" stop-color="#DFDED9"/>
</linearGradient>
<linearGradient id="paint1_linear" x1="41.4208" y1="125.706" x2="150.877" y2="125.706" gradientUnits="userSpaceOnUse">
<stop stop-color="#F8D0A9"/>
<stop offset="1" stop-color="#F1B88A"/>
</linearGradient>
<linearGradient id="paint2_linear" x1="62.9488" y1="98.5123" x2="140.078" y2="98.5123" gradientUnits="userSpaceOnUse">
<stop stop-color="#08426D"/>
<stop offset="1" stop-color="#1D6A99"/>
</linearGradient>
<linearGradient id="paint3_linear" x1="118.034" y1="92.1266" x2="157.822" y2="92.1266" gradientUnits="userSpaceOnUse">
<stop stop-color="#F8D0A9"/>
<stop offset="1" stop-color="#F1B88A"/>
</linearGradient>
<linearGradient id="paint4_linear" x1="119.328" y1="110.624" x2="171.386" y2="110.624" gradientUnits="userSpaceOnUse">
<stop stop-color="#F8D0A9"/>
<stop offset="1" stop-color="#F1B88A"/>
</linearGradient>
<linearGradient id="paint5_linear" x1="120.893" y1="132.817" x2="159.764" y2="132.817" gradientUnits="userSpaceOnUse">
<stop stop-color="#F8D0A9"/>
<stop offset="1" stop-color="#F1B88A"/>
</linearGradient>
<linearGradient id="paint6_linear" x1="124.871" y1="149.671" x2="156.634" y2="149.671" gradientUnits="userSpaceOnUse">
<stop stop-color="#F8D0A9"/>
<stop offset="1" stop-color="#F1B88A"/>
</linearGradient>
<linearGradient id="paint7_linear" x1="82.7206" y1="38.6226" x2="120.307" y2="38.6226" gradientUnits="userSpaceOnUse">
<stop stop-color="#08426D"/>
<stop offset="1" stop-color="#1D6A99"/>
</linearGradient>
<linearGradient id="paint8_linear" x1="109.971" y1="73.7365" x2="118.804" y2="73.7365" gradientUnits="userSpaceOnUse">
<stop stop-color="#EB7E5A"/>
<stop offset="1" stop-color="#EA5228"/>
</linearGradient>
<linearGradient id="paint9_linear" x1="109.971" y1="73.7365" x2="118.804" y2="73.7365" gradientUnits="userSpaceOnUse">
<stop stop-color="#EB7E5A"/>
<stop offset="1" stop-color="#EA5228"/>
</linearGradient>
<linearGradient id="paint10_linear" x1="58.8972" y1="87.9082" x2="99.5405" y2="87.9082" gradientUnits="userSpaceOnUse">
<stop stop-color="#EB7E5A"/>
<stop offset="1" stop-color="#EA5228"/>
</linearGradient>
</defs>
</svg>
