<svg width="194" height="207" viewBox="0 0 194 207" fill="none" xmlns="http://www.w3.org/2000/svg">
<path d="M97 194.268C150.572 194.268 194 150.779 194 97.1338C194 43.4883 150.572 0 97 0C43.4284 0 0 43.4883 0 97.1338C0 150.779 43.4284 194.268 97 194.268Z" fill="url(#paint0_linear)"/>
<path d="M54.4698 163.757C46.5286 153.331 42.1094 140.654 41.8879 127.545C41.611 111.153 42.785 89.1927 49.7848 76.3051C61.9901 53.835 60.4173 39.6498 69.0674 50.6852C77.7285 61.7206 75.3694 97.5885 75.3694 97.5885H138.345L152.444 155.006L135.266 165.93C129.784 169.413 126.461 175.469 126.461 181.968V207H57.6817V173.295C57.6817 169.846 56.552 166.496 54.4698 163.757Z" fill="url(#paint1_linear)"/>
<path opacity="0.4" d="M66.1213 162.237C59.5202 161.527 54.0157 159.187 49.4857 156.104C50.9477 158.766 52.6091 161.328 54.4698 163.768C56.5298 165.831 57.6817 168.626 57.6817 171.542V207H67.694V189.354C67.694 182.212 73.4755 176.422 80.6081 176.422H127.303C128.61 172.141 131.39 168.393 135.266 165.931L140.361 162.692C121.377 163.335 84.6064 164.223 66.1213 162.237Z" fill="#E5A376"/>
<path d="M131.877 29.8011H73.265C67.9266 29.8011 63.6071 34.1377 63.6071 39.4724V159.476C63.6071 164.821 67.9377 169.147 73.265 169.147H131.877C137.215 169.147 141.535 164.81 141.535 159.476V39.4724C141.535 34.1266 137.215 29.8011 131.877 29.8011Z" fill="url(#paint2_linear)"/>
<path d="M131.877 35.7125H105.539V56.6188H135.632V39.4723C135.632 37.3983 133.948 35.7125 131.877 35.7125Z" fill="white"/>
<path d="M96.0254 35.7125H73.265C71.1939 35.7125 69.5104 37.3983 69.5104 39.4723V80.4198H96.0254V35.7125Z" fill="white"/>
<path d="M135.632 58.7372H105.539V76.0833H135.632V58.7372Z" fill="white"/>
<path d="M135.632 85.6104H105.539V140.399H135.632V85.6104Z" fill="white"/>
<path d="M96.0254 82.5382H69.5104V105.707H96.0254V82.5382Z" fill="white"/>
<path d="M122.297 163.235H131.877C133.948 163.235 135.632 161.549 135.632 159.475V142.506H122.297V163.235Z" fill="white"/>
<path d="M69.5104 115.234V159.464C69.5104 161.538 71.1939 163.224 73.265 163.224H96.0254V115.234H69.5104Z" fill="white"/>
<path d="M120.181 142.506H105.539V163.235H120.181V142.506Z" fill="white"/>
<path d="M105.539 35.7125H96.0254V80.4309H69.5104V82.5382H96.0254V105.718H69.5104V115.234H96.0254V163.235H105.539V142.507H120.181V163.235H122.297V142.507H135.632V140.388H105.539V85.6104H135.632V76.0833H105.539V58.7372H135.632V56.6188H105.539V35.7125Z" fill="white"/>
<path d="M121.566 35.7125L118.431 39.9271C117.335 41.4021 115.596 42.2783 113.757 42.2783H91.3957C89.5572 42.2783 87.8183 41.4021 86.7219 39.9271L83.5875 35.7125H121.566Z" fill="white"/>
<path d="M158.591 84.457C156.332 79.4217 150.373 77.1592 145.345 79.4217L125.165 88.3388C120.137 90.6013 117.877 96.5682 120.137 101.603C122.396 106.639 128.355 108.901 133.383 106.639L153.563 97.7217C158.58 95.448 160.851 89.4812 158.591 84.457Z" fill="url(#paint3_linear)"/>
<path opacity="0.29" d="M158.591 84.457C158.17 83.5365 157.639 82.7047 156.996 81.9727C157.628 86.2981 155.368 90.7233 151.193 92.5977L131.013 101.515C126.915 103.356 122.186 102.191 119.362 98.9639C119.495 99.8511 119.738 100.738 120.126 101.603C122.385 106.639 128.344 108.901 133.372 106.639L153.552 97.7217C158.58 95.4481 160.851 89.4812 158.591 84.457Z" fill="#E5A376"/>
<path opacity="0.69" d="M130.149 89.0264L127.524 90.2021C124.102 91.7437 122.219 95.5922 123.338 99.1746C124.667 103.445 129.418 105.496 133.383 103.711L136.185 102.446C137.647 101.792 138.301 100.073 137.636 98.609L133.981 90.4683C133.317 89.0153 131.6 88.361 130.149 89.0264Z" fill="white"/>
<path d="M137.625 98.6201L133.97 90.4794C133.727 89.947 133.35 89.5255 132.896 89.2372C131.766 91.2446 131.556 93.7401 132.575 96.0026C133.594 98.2651 135.587 99.7735 137.836 100.25C137.924 99.7181 137.869 99.1524 137.625 98.6201Z" fill="white"/>
<path d="M172.291 100.428C170.032 95.3926 164.073 93.13 159.045 95.3926L126.482 109.711C121.454 111.973 119.195 117.94 121.454 122.976C123.713 128.011 129.672 130.273 134.7 128.011L167.274 113.693C172.291 111.43 174.55 105.463 172.291 100.428Z" fill="url(#paint4_linear)"/>
<path opacity="0.29" d="M172.292 100.428C171.86 99.4629 171.284 98.5978 170.608 97.8436C170.675 101.737 168.46 105.496 164.705 107.193L132.132 121.512C128.078 123.342 123.404 122.21 120.569 119.06C120.591 120.38 120.868 121.711 121.444 122.976C123.703 128.011 129.662 130.273 134.69 128.011L167.264 113.692C172.292 111.43 174.551 105.463 172.292 100.428Z" fill="#E5A376"/>
<path opacity="0.69" d="M131.456 110.398L128.831 111.574C125.409 113.116 123.526 116.964 124.645 120.547C125.974 124.817 130.725 126.868 134.679 125.083L137.481 123.818C138.943 123.164 139.597 121.445 138.932 119.981L135.277 111.84C134.635 110.398 132.918 109.744 131.456 110.398Z" fill="white"/>
<path d="M138.943 119.992L135.288 111.851C135.045 111.319 134.668 110.898 134.214 110.609C133.084 112.617 132.874 115.112 133.893 117.375C134.912 119.637 136.905 121.146 139.154 121.622C139.242 121.09 139.176 120.524 138.943 119.992Z" fill="white"/>
<path d="M160.674 125.726C158.735 121.412 153.618 119.46 149.31 121.401L127.225 131.116C122.917 133.057 120.968 138.181 122.906 142.496C124.844 146.81 129.961 148.762 134.269 146.821L156.354 137.105C160.674 135.164 162.612 130.052 160.674 125.726Z" fill="url(#paint5_linear)"/>
<path opacity="0.29" d="M160.674 125.726C160.242 124.75 159.644 123.907 158.924 123.186C159.599 126.979 157.65 130.928 153.984 132.569L131.899 142.285C128.554 143.793 124.733 142.961 122.275 140.499C122.396 141.176 122.596 141.841 122.895 142.495C124.833 146.81 129.95 148.762 134.258 146.821L156.343 137.105C160.674 135.164 162.612 130.052 160.674 125.726Z" fill="#E5A376"/>
<path opacity="0.69" d="M131.489 131.704L129.241 132.713C126.306 134.033 124.689 137.338 125.641 140.41C126.782 144.081 130.858 145.834 134.258 144.303L136.662 143.227C137.913 142.662 138.478 141.187 137.913 139.933L134.779 132.946C134.214 131.704 132.741 131.138 131.489 131.704Z" fill="white"/>
<path d="M137.913 139.945L134.779 132.957C134.579 132.503 134.247 132.137 133.86 131.893C132.885 133.612 132.719 135.752 133.583 137.693C134.447 139.634 136.174 140.921 138.102 141.342C138.168 140.876 138.124 140.399 137.913 139.945Z" fill="white"/>
<path d="M157.561 144.292C155.756 140.277 151.005 138.47 146.984 140.266L130.88 147.387C126.871 149.194 125.066 153.952 126.86 157.978C128.665 161.993 133.417 163.801 137.437 162.004L153.541 154.884C157.561 153.065 159.367 148.307 157.561 144.292Z" fill="url(#paint6_linear)"/>
<path opacity="0.29" d="M157.561 144.292C157.152 143.372 156.565 142.562 155.889 141.885C156.022 145.069 154.25 148.174 151.193 149.549L135.089 156.67C131.999 158.056 128.477 157.302 126.195 155.05C126.24 156.037 126.45 157.025 126.882 157.967C128.687 161.982 133.439 163.79 137.459 161.993L153.563 154.873C157.561 153.065 159.367 148.307 157.561 144.292Z" fill="#E5A376"/>
<path opacity="0.69" d="M134.856 147.93L132.763 148.873C130.027 150.104 128.521 153.176 129.418 156.037C130.482 159.453 134.269 161.084 137.437 159.664L139.674 158.655C140.837 158.134 141.358 156.758 140.837 155.594L137.924 149.095C137.393 147.93 136.019 147.409 134.856 147.93Z" fill="white"/>
<path d="M140.837 155.594L137.924 149.094C137.736 148.673 137.426 148.34 137.071 148.096C136.163 149.693 136.008 151.69 136.817 153.498C137.625 155.305 139.22 156.503 141.014 156.891C141.07 156.47 141.025 156.015 140.837 155.594Z" fill="white"/>
<path d="M121.566 35.7125L118.431 39.9271C117.335 41.4021 115.596 42.2783 113.757 42.2783H91.3958C89.5572 42.2783 87.8184 41.4021 86.7219 39.9271L83.5875 35.7125H121.566Z" fill="url(#paint7_linear)"/>
<path d="M163.365 53.824L163.221 53.9238C163.099 54.0126 162.988 54.0902 162.867 54.1789L159.511 56.4526C154.648 59.7576 149.775 63.0627 144.902 66.3456C146.962 72.2903 149 78.2239 151.038 84.1576L152.168 87.4515C152.223 87.5957 152.256 87.751 152.323 87.9506L152.4 88.2168C152.622 89.0154 152.334 89.8583 151.658 90.3463C151.315 90.6014 150.905 90.7234 150.484 90.7123C150.107 90.7123 149.731 90.5903 149.41 90.3685L149.066 90.1355C148.867 90.0024 148.701 89.8915 148.546 89.7695L145.777 87.7954C140.815 84.2685 135.842 80.7416 130.891 77.2036C125.841 80.7194 120.79 84.2241 115.74 87.7399L113.381 89.3814C113.248 89.4701 113.104 89.5699 112.949 89.6697L112.694 89.8361C112.018 90.2908 111.132 90.2686 110.468 89.7917C110.435 89.7695 110.401 89.7363 110.368 89.7141H110.357L108.242 88.117L109.659 88.4276C109.637 88.1946 109.648 87.9396 109.715 87.7066L109.781 87.4626C109.837 87.263 109.881 87.0966 109.925 86.9303L110.856 84.0356C112.606 78.601 114.355 73.1665 116.128 67.732C111.033 63.9389 105.949 60.1569 100.876 56.3638L97.5981 53.9128C97.288 53.6909 96.9003 53.3471 96.5902 52.7593C96.269 52.1493 96.2912 51.4173 96.6456 50.8295C97 50.2417 97.6313 49.8868 98.318 49.8868H98.7389C99.0601 49.8868 99.3702 49.8868 99.6914 49.8868L104.897 49.8313C110.579 49.7759 116.26 49.7204 121.931 49.676C123.714 44.1195 125.497 38.5852 127.281 33.0397L128.776 28.4481C128.942 27.9712 129.274 27.583 129.706 27.3501L129.684 25.8972L131.678 27.4167C132.01 27.6274 132.287 27.9379 132.442 28.3261L132.542 28.5479C132.619 28.7254 132.674 28.8696 132.73 29.0248L133.992 32.4741C136.163 38.4188 138.323 44.3524 140.483 50.2971C146.054 50.2528 151.614 50.2306 157.185 50.2084L161.139 50.1862L161.117 48.933L163.376 50.6409C163.786 50.9404 164.074 51.384 164.162 51.8942C164.284 52.6262 163.974 53.3804 163.365 53.824Z" fill="#F4CD2A"/>
<path d="M148.258 89.0264C147.881 89.0264 147.505 88.9044 147.172 88.6826L146.829 88.4497C146.63 88.3166 146.464 88.2057 146.309 88.0837L143.54 86.1095C138.578 82.5826 133.605 79.0557 128.654 75.5178C123.604 79.0336 118.553 82.5494 113.503 86.0541L111.144 87.6955C111.011 87.7843 110.878 87.8841 110.712 87.9839L110.479 88.1392C109.803 88.5939 108.917 88.5717 108.253 88.0948C107.588 87.6179 107.289 86.7861 107.5 85.9986L107.566 85.7546C107.621 85.555 107.666 85.3886 107.71 85.2223L108.64 82.3276C110.39 76.893 112.14 71.4585 113.912 66.024C108.818 62.2309 103.734 58.4489 98.6613 54.6558L95.383 52.2048C95.0729 51.9718 94.6852 51.6391 94.3751 51.0513C94.0539 50.4413 94.076 49.7093 94.4305 49.1215C94.7849 48.5337 95.4162 48.1788 96.1029 48.1788H96.5238C96.8449 48.1788 97.1551 48.1788 97.4763 48.1788L102.682 48.1233C108.364 48.0679 114.045 48.0124 119.716 47.968C121.499 42.4226 123.282 36.8772 125.066 31.3428L126.561 26.7512C126.827 25.9748 127.535 25.4536 128.344 25.4203C129.164 25.387 129.906 25.875 130.216 26.6292L130.304 26.851C130.382 27.0285 130.437 27.1727 130.493 27.3168L131.755 30.7661C133.926 36.7108 136.086 42.6444 138.245 48.5891C143.817 48.5448 149.376 48.5226 154.947 48.5004L159.079 48.4782C159.411 48.4782 159.909 48.4782 160.53 48.6446C161.261 48.8442 161.803 49.4542 161.925 50.1973C162.058 50.9404 161.748 51.6946 161.128 52.1271L160.984 52.2269C160.862 52.3157 160.751 52.3933 160.629 52.482L157.273 54.7557C152.4 58.0607 147.538 61.3658 142.665 64.6598C144.725 70.6045 146.763 76.5381 148.801 82.4606L149.93 85.7546C149.986 85.8988 150.03 86.0541 150.074 86.2537L150.152 86.5199C150.373 87.3185 150.085 88.1614 149.41 88.6494C149.077 88.9155 148.668 89.0375 148.258 89.0264Z" fill="#FFE36E"/>
<path d="M99.5917 84.0133L99.5363 84.0466C99.492 84.0799 99.4477 84.1132 99.4034 84.1464L98.1408 85.0004C96.3133 86.2426 94.4858 87.4848 92.6473 88.7159C93.4226 90.9451 94.1868 93.1744 94.951 95.4037L95.3719 96.6458C95.394 96.7013 95.4051 96.7567 95.4273 96.8344L95.4605 96.9342C95.5491 97.2337 95.4383 97.5553 95.1836 97.7327C95.0507 97.8215 94.8956 97.8769 94.7406 97.8658C94.5966 97.8658 94.4526 97.8215 94.3308 97.7327L94.1979 97.644C94.1204 97.5886 94.065 97.5553 93.9985 97.5109L92.9574 96.7678C91.0967 95.4369 89.2249 94.1171 87.3642 92.7862C85.4703 94.106 83.5653 95.4258 81.6714 96.7457L80.7853 97.3667C80.73 97.4 80.6857 97.4333 80.6192 97.4776L80.5306 97.5331C80.2759 97.6995 79.9436 97.6995 79.6999 97.522C79.6889 97.5109 79.6778 97.4998 79.6667 97.4887L78.8693 96.8898L79.4009 97.0118C79.3898 96.9231 79.4009 96.8344 79.423 96.7346L79.4452 96.6458C79.4673 96.5682 79.4784 96.5127 79.5006 96.4462L79.855 95.3593C80.5084 93.3186 81.173 91.2779 81.8375 89.2371C79.9214 87.8175 78.0164 86.3868 76.1114 84.9672L74.8821 84.0466C74.7713 83.9579 74.6162 83.8359 74.5055 83.6141C74.3836 83.3812 74.3947 83.115 74.5276 82.8932C74.6605 82.6713 74.9042 82.5382 75.1589 82.5382H75.314C75.4358 82.5382 75.5577 82.5382 75.6684 82.5382L77.6288 82.5161C79.7664 82.4939 81.8929 82.4717 84.0305 82.4606C84.695 80.3755 85.3706 78.2905 86.0462 76.2165L86.6111 74.4863C86.6775 74.3088 86.7994 74.1646 86.9544 74.0759L86.9434 73.5325L87.6965 74.0981C87.8183 74.1757 87.9291 74.2977 87.9845 74.4419L88.0177 74.5196C88.0509 74.5861 88.0731 74.6416 88.0842 74.697L88.5604 75.9946C89.38 78.2239 90.1885 80.4532 90.997 82.6935C93.0903 82.6824 95.1836 82.6713 97.2658 82.6602L98.7499 82.6492L98.7389 82.1833L99.5917 82.8266C99.7467 82.9375 99.8575 83.1039 99.8907 83.3035C99.9461 83.5586 99.8243 83.847 99.5917 84.0133Z" fill="#F4CD2A"/>
<path d="M93.921 97.2447C93.777 97.2447 93.633 97.2004 93.5112 97.1117L93.3783 97.0229C93.3008 96.9675 93.2454 96.9342 93.1789 96.8898L92.1378 96.1467C90.2771 94.8158 88.4053 93.496 86.5446 92.1651C84.6507 93.4849 82.7457 94.8047 80.8518 96.1246L79.9657 96.7457C79.9104 96.7789 79.8661 96.8122 79.7996 96.8566L79.711 96.912C79.4563 97.0784 79.124 97.0784 78.8803 96.9009C78.6367 96.7235 78.5148 96.4129 78.6034 96.1135L78.6256 96.0247C78.6477 95.9471 78.6588 95.8917 78.681 95.8251L79.0354 94.7382C79.6889 92.6975 80.3534 90.6568 81.0179 88.616C79.1018 87.1964 77.1969 85.7657 75.2918 84.3461L74.0625 83.4255C73.9517 83.3368 73.7966 83.2148 73.6859 82.993C73.5641 82.7601 73.5751 82.4939 73.708 82.2721C73.8409 82.0502 74.0846 81.9172 74.3393 81.9172H74.4944C74.6162 81.9172 74.727 81.9172 74.8488 81.9172L76.8092 81.895C78.9468 81.8728 81.0733 81.8506 83.2109 81.8395C83.8754 79.7544 84.551 77.6694 85.2266 75.5954L85.7915 73.8652C85.8912 73.5768 86.157 73.3772 86.4671 73.3661C86.7772 73.355 87.0541 73.5325 87.176 73.8208L87.2092 73.9095C87.2424 73.9761 87.2646 74.0315 87.2756 74.087L87.7519 75.3846C88.5715 77.6139 89.38 79.8432 90.1885 82.0835C92.2818 82.0724 94.3751 82.0613 96.4573 82.0502L98.0079 82.0392C98.1297 82.0392 98.318 82.0392 98.5506 82.1057C98.8275 82.1833 99.0268 82.4052 99.0711 82.6935C99.1154 82.9708 99.0047 83.2592 98.7721 83.4255L98.7167 83.4588C98.6724 83.4921 98.6281 83.5253 98.5838 83.5586L97.3212 84.4126C95.4937 85.6548 93.6663 86.897 91.8277 88.128C92.603 90.3573 93.3672 92.5866 94.1314 94.8158L94.5523 96.058C94.5744 96.1135 94.5855 96.1689 94.6077 96.2466L94.6409 96.3464C94.7295 96.6458 94.6187 96.9675 94.364 97.1449C94.2311 97.2004 94.076 97.2447 93.921 97.2447Z" fill="#FFE36E"/>
<path d="M115.718 128.51L107.876 125.305H38.8421C37.7234 125.305 36.8152 124.395 36.8152 123.275V109.356C36.8152 108.236 37.7234 107.326 38.8421 107.326H111.974C113.093 107.326 114.001 108.236 114.001 109.356V119.582L116.36 127.933C116.471 128.321 116.083 128.654 115.718 128.51Z" fill="url(#paint8_linear)"/>
<path d="M51.6898 121.589C51.6233 121.589 51.5679 121.567 51.5126 121.534L51.4572 121.5C51.424 121.478 51.4018 121.456 51.3686 121.445L50.9034 121.123C50.0727 120.547 49.231 119.97 48.4003 119.393C47.5697 119.992 46.7279 120.591 45.8972 121.179L45.5096 121.456C45.4874 121.467 45.4653 121.489 45.4431 121.5L45.3988 121.523C45.2881 121.6 45.1441 121.6 45.0333 121.523C44.9226 121.445 44.8672 121.301 44.9004 121.179L44.9115 121.134C44.9226 121.101 44.9226 121.068 44.9337 121.046L45.0776 120.558C45.3545 119.648 45.6425 118.739 45.9194 117.829C45.0666 117.208 44.2027 116.587 43.3499 115.966L42.7961 115.567C42.7407 115.533 42.6742 115.478 42.6299 115.378C42.5746 115.278 42.5746 115.156 42.6299 115.057C42.6853 114.957 42.7961 114.901 42.9068 114.89H42.9733C43.0287 114.89 43.084 114.89 43.1283 114.89L43.9922 114.868C44.9337 114.846 45.8862 114.824 46.8276 114.801C47.1156 113.87 47.3924 112.949 47.6804 112.018L47.9241 111.252C47.9684 111.119 48.0791 111.031 48.2231 111.031C48.356 111.019 48.4889 111.097 48.5332 111.23L48.5443 111.263C48.5554 111.297 48.5665 111.319 48.5775 111.341L48.799 111.918C49.1756 112.905 49.5522 113.892 49.9177 114.879C50.848 114.857 51.7784 114.846 52.6977 114.824L53.3843 114.813C53.4397 114.813 53.5283 114.813 53.628 114.835C53.7498 114.868 53.8384 114.968 53.8606 115.09C53.8827 115.212 53.8384 115.345 53.7277 115.411L53.7055 115.434C53.6834 115.445 53.6612 115.467 53.6502 115.478L53.0964 115.866C52.2879 116.432 51.4904 116.986 50.6819 117.552C51.0363 118.539 51.3907 119.526 51.7452 120.502L51.9445 121.046C51.9556 121.068 51.9556 121.09 51.9667 121.134L51.9777 121.179C52.022 121.312 51.9667 121.456 51.8559 121.534C51.8227 121.578 51.7562 121.589 51.6898 121.589Z" fill="#FDF8FF"/>
<path d="M65.2684 121.589C65.202 121.589 65.1466 121.567 65.0912 121.534L65.0359 121.5C65.0026 121.478 64.9805 121.456 64.9473 121.445L64.4821 121.123C63.6514 120.547 62.8097 119.97 61.979 119.393C61.1483 119.992 60.3066 120.591 59.4759 121.179L59.0883 121.456C59.0661 121.467 59.044 121.489 59.0218 121.5L58.9775 121.523C58.8668 121.6 58.7228 121.6 58.612 121.523C58.5013 121.445 58.4459 121.301 58.4791 121.179L58.4902 121.134C58.5013 121.101 58.5013 121.068 58.5123 121.046L58.6563 120.558C58.9332 119.648 59.2212 118.739 59.4981 117.829C58.6452 117.208 57.7814 116.587 56.9285 115.966L56.3748 115.567C56.3194 115.533 56.2529 115.478 56.2086 115.378C56.1532 115.278 56.1532 115.156 56.2086 115.057C56.264 114.957 56.3748 114.901 56.4855 114.89H56.552C56.6073 114.89 56.6627 114.89 56.707 114.89L57.5709 114.868C58.5123 114.846 59.4648 114.824 60.4063 114.801C60.6942 113.87 60.9711 112.949 61.2591 112.018L61.5027 111.252C61.547 111.119 61.6578 111.031 61.8018 111.031C61.9347 111.019 62.0676 111.097 62.1119 111.23L62.123 111.263C62.1341 111.297 62.1451 111.319 62.1562 111.341L62.3777 111.918C62.7543 112.905 63.1309 113.892 63.4964 114.879C64.4267 114.857 65.3571 114.846 66.2763 114.824L66.963 114.813C67.0184 114.813 67.107 114.813 67.2067 114.835C67.3285 114.868 67.4171 114.968 67.4393 115.09C67.4614 115.212 67.4171 115.345 67.3064 115.411L67.2842 115.434C67.2621 115.445 67.2399 115.467 67.2288 115.478L66.675 115.866C65.8665 116.432 65.0691 116.986 64.2606 117.552C64.615 118.539 64.9694 119.526 65.3238 120.502L65.5232 121.046C65.5343 121.068 65.5343 121.09 65.5453 121.134L65.5564 121.179C65.6007 121.312 65.5453 121.456 65.4346 121.534C65.4124 121.578 65.346 121.589 65.2684 121.589Z" fill="#FDF8FF"/>
<path d="M78.8582 121.589C78.7917 121.589 78.7364 121.567 78.681 121.534L78.6256 121.5C78.5924 121.478 78.5702 121.456 78.537 121.445L78.0718 121.123C77.2411 120.547 76.3994 119.97 75.5687 119.393C74.7381 119.992 73.8963 120.591 73.0657 121.179L72.678 121.456C72.6559 121.467 72.6337 121.489 72.6116 121.5L72.5672 121.523C72.4565 121.6 72.3125 121.6 72.2018 121.523C72.091 121.445 72.0356 121.301 72.0688 121.179L72.0799 121.134C72.091 121.101 72.091 121.068 72.1021 121.046L72.2461 120.558C72.523 119.648 72.8109 118.739 73.0878 117.829C72.235 117.208 71.3711 116.587 70.5183 115.966L69.9645 115.567C69.9091 115.533 69.8427 115.478 69.7984 115.378C69.743 115.278 69.743 115.156 69.7984 115.057C69.8537 114.957 69.9645 114.901 70.0752 114.89H70.1417C70.1971 114.89 70.2525 114.89 70.2968 114.89L71.1607 114.868C72.1021 114.846 73.0546 114.824 73.996 114.801C74.284 113.87 74.5609 112.949 74.8488 112.018L75.0925 111.252C75.1368 111.119 75.2475 111.031 75.3915 111.031C75.5244 111.019 75.6573 111.097 75.7016 111.23L75.7127 111.263C75.7238 111.297 75.7349 111.319 75.7459 111.341L75.9675 111.918C76.344 112.905 76.7206 113.892 77.0861 114.879C78.0164 114.857 78.9468 114.846 79.8661 114.824L80.5528 114.813C80.6081 114.813 80.6967 114.813 80.7964 114.835C80.9182 114.868 81.0069 114.968 81.029 115.09C81.0512 115.212 81.0069 115.345 80.8961 115.411L80.8739 115.434C80.8518 115.445 80.8296 115.467 80.8186 115.478L80.2648 115.866C79.4563 116.432 78.6588 116.986 77.8503 117.552C78.2047 118.539 78.5591 119.526 78.9136 120.502L79.1129 121.046C79.124 121.068 79.124 121.09 79.1351 121.134L79.1462 121.179C79.1905 121.312 79.1351 121.456 79.0243 121.534C79.0022 121.578 78.9357 121.589 78.8582 121.589Z" fill="#FDF8FF"/>
<path d="M92.4479 121.589C92.3815 121.589 92.3261 121.567 92.2707 121.534L92.2154 121.5C92.1821 121.478 92.16 121.456 92.1267 121.445L91.6616 121.123C90.8309 120.547 89.9892 119.97 89.1585 119.393C88.3278 119.992 87.4861 120.591 86.6554 121.179L86.2678 121.456C86.2456 121.467 86.2235 121.489 86.2013 121.5L86.157 121.523C86.0462 121.6 85.9023 121.6 85.7915 121.523C85.6808 121.445 85.6254 121.301 85.6586 121.179L85.6697 121.134C85.6808 121.101 85.6808 121.068 85.6918 121.046L85.8358 120.558C86.1127 119.648 86.4007 118.739 86.6776 117.829C85.8247 117.208 84.9608 116.587 84.108 115.966L83.5542 115.567C83.4989 115.533 83.4324 115.478 83.3881 115.378C83.3327 115.278 83.3327 115.156 83.3881 115.057C83.4435 114.957 83.5542 114.901 83.665 114.89H83.7314C83.7868 114.89 83.8422 114.89 83.8865 114.89L84.7504 114.868C85.6918 114.846 86.6443 114.824 87.5858 114.801C87.8737 113.87 88.1506 112.949 88.4386 112.018L88.6822 111.252C88.7265 111.119 88.8373 111.031 88.9813 111.031C89.1142 111.019 89.2471 111.097 89.2914 111.23L89.3025 111.263C89.3135 111.297 89.3246 111.319 89.3357 111.341L89.5572 111.918C89.9338 112.905 90.3104 113.892 90.6758 114.879C91.6062 114.857 92.5365 114.846 93.4558 114.824L94.1425 114.813C94.1979 114.813 94.2865 114.813 94.3862 114.835C94.508 114.868 94.5966 114.968 94.6188 115.09C94.6409 115.212 94.5966 115.345 94.4858 115.411L94.4637 115.434C94.4415 115.445 94.4194 115.467 94.4083 115.478L93.8545 115.866C93.046 116.432 92.2486 116.986 91.4401 117.552C91.7945 118.539 92.1489 119.526 92.5033 120.502L92.7027 121.046C92.7137 121.068 92.7138 121.09 92.7248 121.134L92.7359 121.179C92.7802 121.312 92.7248 121.456 92.6141 121.534C92.5919 121.578 92.5144 121.589 92.4479 121.589Z" fill="#CF3A4A"/>
<path d="M106.038 121.589C105.971 121.589 105.916 121.567 105.86 121.534L105.805 121.5C105.772 121.478 105.75 121.456 105.716 121.445L105.251 121.123C104.421 120.547 103.579 119.97 102.748 119.393C101.918 119.992 101.076 120.591 100.245 121.179L99.8575 121.456C99.8354 121.467 99.8132 121.489 99.791 121.5L99.7467 121.523C99.636 121.6 99.492 121.6 99.3813 121.523C99.2705 121.445 99.2151 121.301 99.2483 121.179L99.2594 121.134C99.2705 121.101 99.2705 121.068 99.2816 121.046L99.4255 120.558C99.7024 119.648 99.9904 118.739 100.267 117.829C99.4145 117.208 98.5506 116.587 97.6978 115.966L97.144 115.567C97.0886 115.533 97.0221 115.478 96.9778 115.378C96.9225 115.278 96.9225 115.156 96.9778 115.057C97.0332 114.957 97.144 114.901 97.2547 114.89H97.3212C97.3766 114.89 97.4319 114.89 97.4763 114.89L98.3401 114.868C99.2816 114.846 100.234 114.824 101.175 114.801C101.463 113.87 101.74 112.949 102.028 112.018L102.272 111.252C102.316 111.119 102.427 111.031 102.571 111.031C102.704 111.019 102.837 111.097 102.881 111.23L102.892 111.263C102.903 111.297 102.914 111.319 102.925 111.341L103.147 111.918C103.524 112.905 103.9 113.892 104.266 114.879C105.196 114.857 106.126 114.846 107.046 114.824L107.732 114.813C107.788 114.813 107.876 114.813 107.976 114.835C108.098 114.868 108.186 114.968 108.208 115.09C108.231 115.212 108.186 115.345 108.076 115.411L108.053 115.434C108.031 115.445 108.009 115.467 107.998 115.478L107.444 115.866C106.636 116.432 105.838 116.986 105.03 117.552C105.384 118.539 105.739 119.526 106.093 120.502L106.292 121.046C106.303 121.068 106.303 121.09 106.315 121.134L106.326 121.179C106.37 121.312 106.315 121.456 106.204 121.534C106.182 121.578 106.104 121.589 106.038 121.589Z" fill="#CF3A4A"/>
<defs>
<linearGradient id="paint0_linear" x1="96.999" y1="187.944" x2="96.999" y2="-8.52666" gradientUnits="userSpaceOnUse">
<stop stop-color="#F2F2F0" stop-opacity="0"/>
<stop offset="1" stop-color="#DFDED9"/>
</linearGradient>
<linearGradient id="paint1_linear" x1="41.8523" y1="126.933" x2="152.449" y2="126.933" gradientUnits="userSpaceOnUse">
<stop stop-color="#F8D0A9"/>
<stop offset="1" stop-color="#F1B88A"/>
</linearGradient>
<linearGradient id="paint2_linear" x1="63.6046" y1="99.4734" x2="141.537" y2="99.4734" gradientUnits="userSpaceOnUse">
<stop stop-color="#08426D"/>
<stop offset="1" stop-color="#1D6A99"/>
</linearGradient>
<linearGradient id="paint3_linear" x1="119.263" y1="93.0255" x2="159.466" y2="93.0255" gradientUnits="userSpaceOnUse">
<stop stop-color="#F8D0A9"/>
<stop offset="1" stop-color="#F1B88A"/>
</linearGradient>
<linearGradient id="paint4_linear" x1="120.571" y1="111.703" x2="173.171" y2="111.703" gradientUnits="userSpaceOnUse">
<stop stop-color="#F8D0A9"/>
<stop offset="1" stop-color="#F1B88A"/>
</linearGradient>
<linearGradient id="paint5_linear" x1="122.153" y1="134.112" x2="161.428" y2="134.112" gradientUnits="userSpaceOnUse">
<stop stop-color="#F8D0A9"/>
<stop offset="1" stop-color="#F1B88A"/>
</linearGradient>
<linearGradient id="paint6_linear" x1="126.172" y1="151.131" x2="158.266" y2="151.131" gradientUnits="userSpaceOnUse">
<stop stop-color="#F8D0A9"/>
<stop offset="1" stop-color="#F1B88A"/>
</linearGradient>
<linearGradient id="paint7_linear" x1="83.5823" y1="38.9993" x2="121.56" y2="38.9993" gradientUnits="userSpaceOnUse">
<stop stop-color="#08426D"/>
<stop offset="1" stop-color="#1D6A99"/>
</linearGradient>
<linearGradient id="paint8_linear" x1="36.8205" y1="117.938" x2="116.376" y2="117.938" gradientUnits="userSpaceOnUse">
<stop stop-color="#EB7E5A"/>
<stop offset="1" stop-color="#EA5228"/>
</linearGradient>
</defs>
</svg>
