<svg width="29" height="29" viewBox="0 0 29 29" fill="none" xmlns="http://www.w3.org/2000/svg">
<g clip-path="url(#clip0)">
<path d="M16.8103 21.7566C18.3746 22.2923 19.7559 22.6335 21.7405 23.2434C20.9781 32.8773 11.8682 29.0514 16.8103 21.7566ZM24.944 12.9067C24.8412 10.0141 24.3317 6.21955 20.2734 6.81412C18.3709 7.31062 16.9653 9.39997 16.3041 13.0048C15.941 14.9868 16.1522 17.7688 16.5805 19.4365C16.9716 20.6117 16.8386 20.5395 17.2589 20.7627C18.8857 21.1291 20.4962 21.5348 22.1363 21.9485C23.8024 20.7719 25.1708 14.5255 24.944 12.9067ZM12.4196 12.6847C12.8475 11.0168 13.0587 8.23475 12.6958 6.25297C12.0351 2.64801 10.6293 0.558324 8.72651 0.0621612C4.66814 -0.532401 4.15865 3.26204 4.05592 6.15485C3.82913 7.77336 5.19767 14.0202 6.86394 15.1966C8.50388 14.7829 10.1142 14.3775 11.7415 14.0107C12.1613 13.7877 12.0283 13.8599 12.4196 12.6847ZM7.25917 16.4918C8.02134 26.1255 17.1312 22.2996 12.1893 15.005C10.625 15.5408 9.24377 15.8819 7.25917 16.4918Z" fill="#D6D6D6"/>
</g>
<defs>
<clipPath id="clip0">
<rect width="29" height="29" fill="white"/>
</clipPath>
</defs>
</svg>
